<?xml version="1.0" encoding="utf-8"?>
<!-- Generator: Adobe Illustrator 16.0.0, SVG Export Plug-In . SVG Version: 6.00 Build 0)  -->
<!DOCTYPE svg PUBLIC "-//W3C//DTD SVG 1.1//EN" "http://www.w3.org/Graphics/SVG/1.1/DTD/svg11.dtd">
<svg version="1.1"
	 id="Layer_1" xmlns:svg="http://www.w3.org/2000/svg" xmlns:inkscape="http://www.inkscape.org/namespaces/inkscape" xmlns:cc="http://creativecommons.org/ns#" xmlns:rdf="http://www.w3.org/1999/02/22-rdf-syntax-ns#" xmlns:dc="http://purl.org/dc/elements/1.1/" xmlns:sodipodi="http://sodipodi.sourceforge.net/DTD/sodipodi-0.dtd"
	 xmlns="http://www.w3.org/2000/svg" xmlns:xlink="http://www.w3.org/1999/xlink" x="0px" y="0px" width="55.333px"
	 height="48.833px" viewBox="10.833 6.333 55.333 48.833" enable-background="new 10.833 6.333 55.333 48.833" xml:space="preserve"
	>
<g transform="translate(0,-952.36218)">
	<path fill="#00BFA5" d="M47.124,960.37c-9.526,0-17.248,6.068-17.248,13.552s7.722,13.552,17.248,13.552
		c1.716,0,3.364-0.25,4.928-0.616l8.624,4.928l-2.464-7.392c3.841-2.486,6.16-6.257,6.16-10.472
		C64.372,966.438,56.65,960.37,47.124,960.37z M40.348,972.074c1.021,0,1.848,0.828,1.848,1.848s-0.826,1.848-1.848,1.848
		c-1.021,0-1.848-0.828-1.848-1.848S39.327,972.074,40.348,972.074z M47.124,972.074c1.021,0,1.849,0.828,1.849,1.848
		s-0.828,1.848-1.849,1.848s-1.849-0.828-1.849-1.848S46.104,972.074,47.124,972.074z M53.9,972.074c1.02,0,1.848,0.828,1.848,1.848
		s-0.828,1.848-1.848,1.848c-1.021,0-1.849-0.828-1.849-1.848S52.879,972.074,53.9,972.074z M27.431,974.673
		c-8.365,0.935-14.803,6.586-14.803,13.417c0,4.215,2.319,7.987,6.16,10.472l-2.464,7.392l8.624-4.928
		c1.564,0.367,3.212,0.616,4.928,0.616c8.727,0,15.945-5.095,17.095-11.704c-3.031-0.019-5.908-0.595-8.49-1.617
		c-0.117,0.909-0.889,1.617-1.829,1.617c-1.021,0-1.848-0.828-1.848-1.848c0-0.52,0.212-0.992,0.558-1.328
		c-0.684-0.414-1.348-0.845-1.963-1.328C29.998,982.762,27.678,978.954,27.431,974.673z M23.1,986.242
		c1.021,0,1.848,0.828,1.848,1.848s-0.828,1.848-1.848,1.848s-1.848-0.828-1.848-1.848S22.08,986.242,23.1,986.242z M29.876,986.242
		c1.021,0,1.848,0.828,1.848,1.848s-0.828,1.848-1.848,1.848s-1.848-0.828-1.848-1.848S28.855,986.242,29.876,986.242z"/>
</g>
</svg>
