<?xml version="1.0" encoding="utf-8"?>
<!-- Generator: Adobe Illustrator 16.0.0, SVG Export Plug-In . SVG Version: 6.00 Build 0)  -->
<!DOCTYPE svg PUBLIC "-//W3C//DTD SVG 1.1//EN" "http://www.w3.org/Graphics/SVG/1.1/DTD/svg11.dtd">
<svg version="1.1" id="Layer_1" xmlns="http://www.w3.org/2000/svg" xmlns:xlink="http://www.w3.org/1999/xlink" x="0px" y="0px"
	 width="59.167px" height="48.167px" viewBox="9.167 6.333 59.167 48.167" enable-background="new 9.167 6.333 59.167 48.167"
	 xml:space="preserve">
<g>
	<path fill="#00BFA5" d="M36.447,22.261H25.675v15.308v15.119h26.636V39.687V22.261h-9.459H36.447z M50.419,39.076v11.721H27.565
		V36.71V24.151h9.74h4.937h8.176L50.419,39.076L50.419,39.076z"/>
	<polygon fill="#00BFA5" points="13.019,20.67 33.79,11.138 37.584,19.406 38.441,16.742 34.72,8.631 10.511,19.74 23.203,47.395 
		24.238,46.92 24.238,44.839 24.132,44.887 	"/>
	<polygon fill="#00BFA5" points="41.662,12.559 38.955,20.975 40.941,20.975 42.883,14.938 64.639,21.938 56.477,47.303 
		53.453,46.329 53.448,46.328 53.448,48.314 53.453,48.316 57.697,49.682 67.018,20.717 	"/>
	<polygon fill="#00BFA5" points="39.002,19.814 38.967,19.896 39.002,19.896 	"/>
	<polygon fill="#00BFA5" points="56.004,40.878 61.601,23.526 44.248,17.93 43.242,21.051 53.453,21.051 53.453,40.055 	"/>
	<polygon fill="#00BFA5" points="32.83,14.295 16.23,21.835 23.769,38.434 24.271,38.206 24.271,20.975 35.863,20.975 	"/>
	<polygon fill="#00BFA5" points="29.886,26.38 29.886,35.656 29.886,44.611 48.118,44.611 48.118,38.334 48.118,26.38 48.118,26.38 
		38.318,26.38 	"/>
</g>
</svg>
